<svg width="512" height="512" viewBox="0 0 512 512" fill="none" xmlns="http://www.w3.org/2000/svg">
<g clip-path="url(#clip0)">
<path d="M240.155 137.887C238.296 136.028 235.717 134.958 233.088 134.958C230.449 134.958 227.88 136.028 226.021 137.887C224.152 139.746 223.092 142.325 223.092 144.954C223.092 147.583 224.152 150.162 226.021 152.021C227.88 153.879 230.449 154.95 233.088 154.95C235.717 154.95 238.296 153.88 240.155 152.021C242.014 150.162 243.084 147.583 243.084 144.954C243.084 142.325 242.015 139.746 240.155 137.887Z" fill="white"/>
<path d="M285.756 362.359C283.897 360.5 281.318 359.43 278.689 359.43C276.06 359.43 273.481 360.499 271.622 362.359C269.763 364.219 268.693 366.797 268.693 369.426C268.693 372.055 269.763 374.634 271.622 376.492C273.481 378.352 276.06 379.422 278.689 379.422C281.318 379.422 283.897 378.352 285.756 376.492C287.625 374.634 288.685 372.055 288.685 369.426C288.684 366.797 287.625 364.218 285.756 362.359Z" fill="white"/>
<path d="M296.95 214.196C291.429 214.196 286.954 218.672 286.954 224.192V287.76C286.954 293.281 291.429 297.756 296.95 297.756C302.471 297.756 306.946 293.28 306.946 287.76V224.192C306.945 218.672 302.47 214.196 296.95 214.196Z" fill="white"/>
<path d="M272.391 284.215L248.282 220.647C246.809 216.764 243.089 214.196 238.936 214.196C234.783 214.196 231.063 216.764 229.59 220.647L205.481 284.215C203.525 289.377 206.122 295.148 211.283 297.105C216.446 299.066 222.216 296.466 224.173 291.303L226.827 284.305H251.045L253.699 291.303C255.214 295.298 259.013 297.757 263.047 297.757C264.224 297.757 265.423 297.547 266.589 297.104C271.752 295.148 274.349 289.378 272.391 284.215ZM234.411 264.315L238.938 252.379L243.465 264.315H234.411Z" fill="white"/>
<path d="M478.015 443.944C472.279 443.944 466.875 445.377 462.131 447.897L435.474 421.24V406.342C446.75 394.566 453.7 378.616 453.7 361.064C453.7 351.999 451.788 343.049 448.195 334.816C469.187 329.584 484.789 310.578 484.789 287.989V198.984C484.789 173.575 465.047 152.705 440.099 150.871C441.18 146.886 441.747 142.744 441.747 138.533C441.747 130.005 439.455 122.005 435.473 115.099V90.762L462.13 64.105C466.874 66.624 472.279 68.058 478.014 68.058C496.754 68.058 511.999 52.813 511.999 34.073C511.999 15.333 496.754 0.0880056 478.014 0.0880056C459.274 0.0880056 444.029 15.333 444.029 34.073C444.029 39.815 445.465 45.225 447.99 49.973L418.41 79.554C416.536 81.429 415.482 83.971 415.482 86.622V96.327C409.206 93.221 402.146 91.466 394.681 91.466C390.636 91.466 386.645 91.98 382.793 92.983C376.78 67.473 353.841 48.422 326.52 48.422C294.635 48.422 268.694 74.363 268.694 106.248V170.013H204.41C201.759 170.013 199.216 171.067 197.342 172.941L172.853 197.43C170.979 199.305 169.925 201.847 169.925 204.498V307.453C169.925 310.104 170.979 312.646 172.853 314.521L197.342 339.01C199.216 340.884 201.759 341.938 204.41 341.938H223.09V405.405C223.09 426.431 205.983 443.536 184.958 443.536C169.928 443.536 156.286 434.682 150.153 420.97C158.896 417.095 166.761 411.32 173.133 403.969C174.938 404.339 176.807 404.534 178.721 404.534C194.046 404.534 206.514 392.066 206.514 376.741C206.514 361.416 194.046 348.948 178.721 348.948C163.396 348.948 150.928 361.416 150.928 376.741C150.928 382.771 152.865 388.355 156.141 392.915C147.643 401.588 135.961 406.6 123.61 406.6C98.499 406.6 78.07 386.171 78.07 361.06C78.07 351.569 80.917 342.598 86.314 334.932C92.332 333.505 98.046 330.94 103.107 327.371C108.438 331.036 114.886 333.187 121.83 333.187C140.099 333.187 154.962 318.325 154.962 300.055C154.962 281.787 140.098 266.923 121.83 266.923C103.562 266.923 88.698 281.785 88.698 300.055C88.698 304.118 89.437 308.011 90.781 311.611C86.217 314.631 80.876 316.255 75.249 316.255C59.662 316.255 46.981 303.574 46.981 287.986V198.981C46.981 183.394 59.662 170.713 75.249 170.713C88.194 170.713 99.128 179.463 102.464 191.357C92.621 195.639 85.719 205.453 85.719 216.853C85.719 232.178 98.187 244.646 113.512 244.646C128.837 244.646 141.305 232.178 141.305 216.853C141.305 204.774 133.558 194.477 122.774 190.653C120.046 175.043 109.802 161.988 95.911 155.378C92.105 150.599 90.023 144.688 90.023 138.529C90.023 123.6 102.169 111.454 117.098 111.454C120.754 111.454 124.324 112.199 127.635 113.599C128.405 121.557 131.364 129.058 136.199 135.399C135.13 138.553 134.542 141.926 134.542 145.436C134.542 162.723 148.607 176.787 165.894 176.787C183.181 176.787 197.246 162.723 197.246 145.436C197.246 128.149 183.181 114.084 165.894 114.084C159.861 114.084 154.223 115.801 149.435 118.767C148.132 115.85 147.423 112.677 147.423 109.394V108.133C147.445 107.757 147.443 107.382 147.423 107.008V106.245C147.423 85.383 164.395 68.41 185.257 68.41C206.119 68.41 223.092 85.382 223.092 106.245C223.092 111.765 227.567 116.241 233.088 116.241C238.609 116.241 243.084 111.765 243.084 106.245C243.084 74.361 217.143 48.419 185.258 48.419C157.938 48.419 134.999 67.47 128.986 92.98C125.134 91.977 121.143 91.463 117.098 91.463C109.722 91.463 102.74 93.172 96.52 96.209V86.618C96.52 83.967 95.466 81.425 93.592 79.55L64.009 49.972C66.534 45.225 67.97 39.814 67.97 34.072C67.97 15.332 52.725 0.0870056 33.985 0.0870056C15.245 0.0870056 0 15.332 0 34.072C0 52.812 15.245 68.057 33.985 68.057C39.721 68.057 45.125 66.624 49.869 64.104L76.526 90.762V114.712C72.405 121.705 70.029 129.844 70.029 138.533C70.029 142.743 70.598 146.885 71.677 150.871C46.73 152.706 26.987 173.576 26.987 198.985V287.99C26.987 310.578 42.589 329.585 63.581 334.817C59.989 343.048 58.076 352 58.076 361.065C58.076 378.733 65.117 394.779 76.525 406.577V421.241L49.868 447.898C45.124 445.379 39.719 443.945 33.984 443.945C15.245 443.944 0 459.189 0 477.929C0 496.669 15.245 511.914 33.985 511.914C52.725 511.914 67.97 496.669 67.97 477.929C67.97 472.188 66.534 466.777 64.009 462.029L93.59 432.448C95.464 430.573 96.518 428.031 96.518 425.38V420.708C104.781 424.476 113.949 426.593 123.609 426.593C125.961 426.593 128.295 426.459 130.605 426.212L131.806 428.925C141.108 449.945 161.971 463.528 184.958 463.528C217.007 463.528 243.082 437.454 243.082 405.405V341.938H307.367C310.018 341.938 312.561 340.884 314.435 339.01L338.924 314.521C340.798 312.646 341.852 310.104 341.852 307.453V204.498C341.852 201.847 340.798 199.305 338.924 197.43L314.435 172.941C312.561 171.067 310.018 170.013 307.367 170.013H288.687V106.248C288.687 85.386 305.659 68.413 326.522 68.413C347.385 68.413 364.357 85.385 364.357 106.248V107.011C364.337 107.385 364.335 107.76 364.357 108.136V109.397C364.357 112.68 363.649 115.853 362.345 118.77C357.557 115.804 351.92 114.087 345.886 114.087C328.599 114.087 314.534 128.152 314.534 145.439C314.534 162.726 328.599 176.79 345.886 176.79C363.173 176.79 377.238 162.726 377.238 145.439C377.238 141.929 376.649 138.556 375.581 135.402C380.416 129.061 383.376 121.559 384.145 113.602C387.458 112.202 391.026 111.457 394.682 111.457C409.612 111.457 421.757 123.603 421.757 138.532C421.757 144.69 419.674 150.602 415.869 155.381C401.978 161.99 391.734 175.045 389.006 190.656C378.222 194.479 370.475 204.778 370.475 216.856C370.475 232.181 382.943 244.649 398.268 244.649C413.593 244.649 426.061 232.181 426.061 216.856C426.061 205.456 419.159 195.641 409.316 191.36C412.653 179.466 423.586 170.716 436.531 170.716C452.118 170.716 464.799 183.397 464.799 198.984V287.989C464.799 303.577 452.117 316.258 436.531 316.258C430.902 316.258 425.563 314.634 420.999 311.614C422.343 308.014 423.082 304.121 423.082 300.058C423.082 281.79 408.218 266.926 389.95 266.926C371.682 266.926 356.818 281.788 356.818 300.058C356.818 318.327 371.682 333.19 389.95 333.19C396.894 333.19 403.342 331.039 408.673 327.374C413.734 330.942 419.448 333.507 425.466 334.935C430.864 342.6 433.71 351.572 433.71 361.063C433.71 386.174 413.281 406.603 388.17 406.603C375.819 406.603 364.137 401.591 355.639 392.918C358.915 388.358 360.852 382.774 360.852 376.744C360.852 361.419 348.384 348.951 333.059 348.951C317.734 348.951 305.266 361.419 305.266 376.744C305.266 392.069 317.734 404.537 333.059 404.537C334.972 404.537 336.841 404.342 338.647 403.972C345.019 411.322 352.884 417.097 361.627 420.973C355.494 434.685 341.853 443.539 326.822 443.539C305.795 443.539 288.69 426.433 288.69 405.408C288.69 399.888 284.215 395.412 278.694 395.412C273.173 395.412 268.698 399.888 268.698 405.408C268.698 437.457 294.773 463.531 326.822 463.531C349.809 463.531 370.673 449.948 379.975 428.927L381.175 426.215C383.485 426.463 385.819 426.596 388.171 426.596C397.917 426.596 407.164 424.442 415.484 420.61V425.382C415.484 428.033 416.538 430.575 418.412 432.45L447.993 462.031C445.468 466.779 444.032 472.19 444.032 477.931C444.032 496.671 459.277 511.916 478.017 511.916C496.757 511.916 512.002 496.671 512.002 477.931C512.002 459.191 496.754 443.944 478.015 443.944ZM478.015 20.078C485.732 20.078 492.009 26.355 492.009 34.072C492.009 41.789 485.732 48.066 478.015 48.066C470.298 48.066 464.021 41.789 464.021 34.072C464.021 26.355 470.298 20.078 478.015 20.078ZM178.72 368.942C183.022 368.942 186.522 372.441 186.522 376.744C186.522 381.047 183.023 384.546 178.72 384.546C174.417 384.546 170.918 381.046 170.918 376.744C170.918 372.442 174.419 368.942 178.72 368.942ZM121.829 286.919C129.075 286.919 134.969 292.813 134.969 300.059C134.969 307.305 129.075 313.199 121.829 313.199C114.583 313.199 108.689 307.305 108.689 300.059C108.689 292.814 114.583 286.919 121.829 286.919ZM113.512 209.054C117.814 209.054 121.314 212.553 121.314 216.856C121.314 221.159 117.814 224.658 113.512 224.658C109.21 224.658 105.71 221.159 105.71 216.856C105.71 212.553 109.209 209.054 113.512 209.054ZM165.893 134.078C172.157 134.078 177.254 139.175 177.254 145.439C177.254 151.703 172.157 156.799 165.893 156.799C159.629 156.799 154.532 151.702 154.532 145.439C154.532 139.175 159.628 134.078 165.893 134.078ZM33.985 48.066C26.268 48.066 19.991 41.789 19.991 34.072C19.991 26.355 26.268 20.078 33.985 20.078C41.702 20.078 47.979 26.355 47.979 34.072C47.979 41.789 41.702 48.066 33.985 48.066ZM33.985 491.923C26.268 491.923 19.991 485.646 19.991 477.929C19.991 470.212 26.268 463.935 33.985 463.935C41.702 463.935 47.979 470.212 47.979 477.929C47.979 485.645 41.702 491.923 33.985 491.923ZM303.226 190.004L321.86 208.639V303.313L303.226 321.948H208.551L189.917 303.313V208.639L208.551 190.004H303.226ZM345.884 156.801C339.62 156.801 334.523 151.704 334.523 145.441C334.523 139.176 339.62 134.08 345.884 134.08C352.148 134.08 357.245 139.177 357.245 145.441C357.245 151.704 352.149 156.801 345.884 156.801ZM398.266 224.657C393.964 224.657 390.464 221.158 390.464 216.855C390.464 212.552 393.963 209.053 398.266 209.053C402.569 209.053 406.068 212.552 406.068 216.855C406.068 221.158 402.568 224.657 398.266 224.657ZM389.947 313.199C382.701 313.199 376.807 307.305 376.807 300.059C376.807 292.814 382.701 286.919 389.947 286.919C397.193 286.919 403.087 292.813 403.087 300.059C403.087 307.305 397.193 313.199 389.947 313.199ZM333.057 384.545C328.755 384.545 325.255 381.045 325.255 376.743C325.255 372.441 328.755 368.941 333.057 368.941C337.359 368.941 340.859 372.441 340.859 376.743C340.859 381.045 337.359 384.545 333.057 384.545ZM478.015 491.923C470.298 491.923 464.021 485.646 464.021 477.929C464.021 470.212 470.298 463.935 478.015 463.935C485.732 463.935 492.009 470.212 492.009 477.929C492.009 485.645 485.73 491.923 478.015 491.923Z" fill="white"/>
</g>
<defs>
<clipPath id="clip0">
<rect width="512.001" height="512.001" fill="white"/>
</clipPath>
</defs>
</svg>
