<svg width="512" height="512" viewBox="0 0 512 512" fill="none" xmlns="http://www.w3.org/2000/svg">
<path d="M256 498.162C208.105 498.162 161.285 483.96 121.462 457.35C81.6385 430.741 50.6 392.921 32.2713 348.671C13.9426 304.422 9.14701 255.731 18.4909 208.756C27.8348 161.782 50.8985 118.632 84.7655 84.7655C118.632 50.8985 161.782 27.8348 208.756 18.4909C255.731 9.14701 304.422 13.9426 348.671 32.2713C392.921 50.6 430.741 81.6385 457.35 121.462C483.96 161.285 498.162 208.105 498.162 256C498.089 320.203 472.552 381.755 427.154 427.154C381.755 472.552 320.203 498.089 256 498.162V498.162ZM256 27.6757C210.842 27.6757 166.698 41.0666 129.15 66.1552C91.602 91.2438 62.3371 126.903 45.0558 168.624C27.7745 210.345 23.2529 256.253 32.0628 300.544C40.8728 344.834 62.6186 385.518 94.5503 417.45C126.482 449.381 167.166 471.127 211.456 479.937C255.747 488.747 301.655 484.225 343.376 466.944C385.097 449.663 420.756 420.398 445.845 382.85C470.933 345.302 484.324 301.158 484.324 256C484.257 195.465 460.179 137.43 417.375 94.6251C374.57 51.8207 316.535 27.7434 256 27.6757V27.6757Z" fill="white"/>
<path d="M256 456.649C216.315 456.649 177.522 444.881 144.526 422.833C111.529 400.786 85.8114 369.449 70.6248 332.785C55.4382 296.121 51.4647 255.777 59.2068 216.855C66.9488 177.933 86.0588 142.181 114.12 114.12C142.181 86.0588 177.933 66.9488 216.855 59.2068C255.777 51.4647 296.121 55.4382 332.785 70.6248C369.449 85.8114 400.786 111.529 422.833 144.526C444.881 177.522 456.649 216.315 456.649 256C456.588 309.197 435.429 360.197 397.813 397.813C360.197 435.429 309.197 456.588 256 456.649V456.649ZM256 69.1892C219.052 69.1892 182.934 80.1454 152.213 100.672C121.493 121.2 97.5486 150.375 83.4093 184.511C69.27 218.646 65.5706 256.207 72.7787 292.445C79.9868 328.683 97.7788 361.969 123.905 388.095C150.031 414.221 183.317 432.013 219.555 439.221C255.793 446.429 293.354 442.73 327.489 428.591C361.625 414.451 390.8 390.507 411.328 359.787C431.855 329.066 442.811 292.948 442.811 256C442.754 206.472 423.054 158.989 388.032 123.968C353.011 88.946 305.528 69.246 256 69.1892Z" fill="white"/>
<path d="M256 119.566C254.165 119.566 252.405 118.837 251.108 117.539C249.81 116.242 249.081 114.482 249.081 112.647V100.76C249.081 98.9252 249.81 97.1654 251.108 95.8678C252.405 94.5703 254.165 93.8413 256 93.8413C257.835 93.8413 259.595 94.5703 260.892 95.8678C262.19 97.1654 262.919 98.9252 262.919 100.76V112.654C262.917 114.488 262.187 116.246 260.89 117.542C259.593 118.838 257.834 119.566 256 119.566Z" fill="white"/>
<path d="M256 418.166C254.165 418.166 252.405 417.437 251.108 416.139C249.81 414.842 249.081 413.082 249.081 411.247V399.353C249.081 397.518 249.81 395.758 251.108 394.461C252.405 393.163 254.165 392.434 256 392.434C257.835 392.434 259.595 393.163 260.892 394.461C262.19 395.758 262.919 397.518 262.919 399.353V411.247C262.919 413.082 262.19 414.842 260.892 416.139C259.595 417.437 257.835 418.166 256 418.166Z" fill="white"/>
<path d="M357.362 161.557C355.994 161.556 354.656 161.151 353.519 160.39C352.381 159.63 351.495 158.549 350.971 157.285C350.448 156.021 350.311 154.63 350.578 153.288C350.844 151.946 351.503 150.714 352.47 149.746L360.877 141.34C362.182 140.079 363.93 139.382 365.744 139.398C367.558 139.413 369.293 140.141 370.576 141.424C371.859 142.707 372.586 144.442 372.602 146.256C372.618 148.07 371.921 149.818 370.66 151.123L362.254 159.53C360.957 160.827 359.197 161.556 357.362 161.557V161.557Z" fill="white"/>
<path d="M146.231 372.694C144.863 372.694 143.526 372.288 142.388 371.528C141.251 370.768 140.364 369.687 139.84 368.423C139.317 367.159 139.18 365.768 139.447 364.426C139.714 363.084 140.372 361.852 141.34 360.884L149.746 352.477C151.051 351.217 152.799 350.52 154.613 350.535C156.427 350.551 158.162 351.279 159.445 352.562C160.728 353.845 161.456 355.58 161.471 357.394C161.487 359.208 160.79 360.956 159.53 362.261L151.123 370.667C149.826 371.965 148.066 372.694 146.231 372.694V372.694Z" fill="white"/>
<path d="M411.247 262.919H399.353C397.518 262.919 395.758 262.19 394.461 260.892C393.163 259.595 392.434 257.835 392.434 256C392.434 254.165 393.163 252.405 394.461 251.108C395.758 249.81 397.518 249.081 399.353 249.081H411.247C413.082 249.081 414.842 249.81 416.139 251.108C417.437 252.405 418.166 254.165 418.166 256C418.166 257.835 417.437 259.595 416.139 260.892C414.842 262.19 413.082 262.919 411.247 262.919Z" fill="white"/>
<path d="M112.647 262.919H100.76C98.9252 262.919 97.1654 262.19 95.8678 260.892C94.5703 259.595 93.8413 257.835 93.8413 256C93.8413 254.165 94.5703 252.405 95.8678 251.108C97.1654 249.81 98.9252 249.081 100.76 249.081H112.654C114.489 249.081 116.249 249.81 117.546 251.108C118.844 252.405 119.573 254.165 119.573 256C119.573 257.835 118.844 259.595 117.546 260.892C116.249 262.19 114.489 262.919 112.654 262.919H112.647Z" fill="white"/>
<path d="M365.769 372.694C363.934 372.694 362.174 371.965 360.877 370.667L352.47 362.261C351.21 360.956 350.513 359.208 350.529 357.394C350.544 355.58 351.272 353.845 352.555 352.562C353.838 351.279 355.573 350.551 357.387 350.535C359.201 350.52 360.949 351.217 362.254 352.477L370.66 360.884C371.628 361.852 372.286 363.084 372.553 364.426C372.82 365.768 372.683 367.159 372.159 368.423C371.636 369.687 370.749 370.768 369.612 371.528C368.474 372.288 367.137 372.694 365.769 372.694Z" fill="white"/>
<path d="M150.1 159.176L150.1 159.176C151.303 160.38 152.936 161.056 154.638 161.057L150.1 159.176ZM150.1 159.176L141.696 150.773M150.1 159.176L141.696 150.773M141.696 150.773C140.529 149.562 139.883 147.942 139.898 146.261C139.912 144.578 140.587 142.968 141.778 141.778C142.968 140.587 144.578 139.912 146.261 139.898C147.942 139.883 149.562 140.529 150.773 141.696L159.176 150.1C159.176 150.1 159.176 150.1 159.176 150.1C160.073 150.997 160.684 152.141 160.932 153.386C161.18 154.631 161.052 155.921 160.567 157.094C160.081 158.267 159.259 159.269 158.203 159.975C157.148 160.68 155.907 161.056 154.638 161.057L141.696 150.773Z" fill="white" stroke="white"/>
<path d="M217.517 301.409C216.149 301.409 214.811 301.003 213.674 300.242C212.536 299.482 211.65 298.402 211.126 297.138C210.603 295.873 210.466 294.482 210.732 293.141C210.999 291.799 211.658 290.566 212.625 289.598L249.081 253.136V152.216C249.081 150.381 249.81 148.621 251.108 147.324C252.405 146.026 254.165 145.297 256 145.297C257.835 145.297 259.595 146.026 260.892 147.324C262.19 148.621 262.919 150.381 262.919 152.216V256C262.919 257.835 262.189 259.594 260.892 260.892L222.409 299.382C221.111 300.679 219.352 301.408 217.517 301.409V301.409Z" fill="white"/>
</svg>
