<svg width="512" height="512" viewBox="0 0 512 512" fill="none" xmlns="http://www.w3.org/2000/svg">
<path d="M472 332V120C472 97.9453 454.055 80 432 80H406V100C406 111.047 397.047 120 386 120C374.953 120 366 111.047 366 100V80H275V100C275 111.047 266.047 120 255 120C243.953 120 235 111.047 235 100V80H145V100C145 111.047 136.047 120 125 120C113.953 120 105 111.047 105 100V80H80C57.9453 80 40 97.9453 40 120V432C40 454.055 57.9453 472 80 472H432C454.055 472 472 454.055 472 432C472 420.953 480.953 412 492 412C503.047 412 512 420.953 512 432C512 476.113 476.113 512 432 512H80C35.8867 512 0 476.113 0 432V120C0 75.8867 35.8867 40 80 40H105V20C105 8.95312 113.953 0 125 0C136.047 0 145 8.95312 145 20V40H235V20C235 8.95312 243.953 0 255 0C266.047 0 275 8.95312 275 20V40H366V20C366 8.95312 374.953 0 386 0C397.047 0 406 8.95312 406 20V40H432C476.113 40 512 75.8867 512 120V332C512 343.047 503.047 352 492 352C480.953 352 472 343.047 472 332ZM145 210C145 198.953 136.047 190 125 190C113.953 190 105 198.953 105 210C105 221.047 113.953 230 125 230C136.047 230 145 221.047 145 210ZM319 210C319 198.953 310.047 190 299 190C287.953 190 279 198.953 279 210C279 221.047 287.953 230 299 230C310.047 230 319 221.047 319 210ZM386 230C397.047 230 406 221.047 406 210C406 198.953 397.047 190 386 190C374.953 190 366 198.953 366 210C366 221.047 374.953 230 386 230ZM145 297C145 285.953 136.047 277 125 277C113.953 277 105 285.953 105 297C105 308.047 113.953 317 125 317C136.047 317 145 308.047 145 297ZM125 364C113.953 364 105 372.953 105 384C105 395.047 113.953 404 125 404C136.047 404 145 395.047 145 384C145 372.953 136.047 364 125 364ZM232 210C232 198.953 223.047 190 212 190C200.953 190 192 198.953 192 210C192 221.047 200.953 230 212 230C223.047 230 232 221.047 232 210ZM232 297C232 285.953 223.047 277 212 277C200.953 277 192 285.953 192 297C192 308.047 200.953 317 212 317C223.047 317 232 308.047 232 297ZM212 364C200.953 364 192 372.953 192 384C192 395.047 200.953 404 212 404C223.047 404 232 395.047 232 384C232 372.953 223.047 364 212 364ZM380.047 352.762L402.906 335.898C410.66 330.289 406.676 317 397.09 317H368.727C364.438 317 360.641 315.328 359.312 311.266L350.41 283.809C348.93 279.27 344.965 277 341 277C337.035 277 333.07 279.27 331.59 283.809L322.684 311.27C321.359 315.328 317.562 317 313.273 317H284.949C275.363 317 271.379 330.289 279.133 335.898L301.953 352.762C305.422 355.27 306.875 359.719 305.551 363.777L296.645 391.059C293.684 400.137 304.117 407.684 311.875 402.074L335.184 385.207C336.918 383.953 338.961 383.324 341 383.324C343.039 383.324 345.082 383.953 346.816 385.207L370.125 402.074C377.883 407.684 388.316 400.137 385.355 391.059L376.449 363.777C375.125 359.715 376.578 355.27 380.047 352.762V352.762Z" fill="white"/>
</svg>
