<svg width="512" height="512" viewBox="0 0 512 512" fill="none" xmlns="http://www.w3.org/2000/svg">
<path d="M414.47 215.857V142.209C414.47 129.779 404.357 119.665 391.926 119.665C379.495 119.665 369.382 129.779 369.382 142.209V183.396H350.062V94.062C350.062 42.196 307.866 0 256 0C240.628 0 225.373 3.793 211.885 10.968C208.222 12.917 206.831 17.467 208.78 21.131C210.728 24.793 215.277 26.189 218.943 24.236C230.266 18.214 243.08 15.03 256 15.03C296.881 15.03 330.611 46.232 334.629 86.072H312.552C308.401 86.072 305.037 89.436 305.037 93.587C305.037 97.738 308.401 101.102 312.552 101.102H335.032V125.002H312.552C308.401 125.002 305.037 128.366 305.037 132.517C305.037 136.668 308.401 140.032 312.552 140.032H335.032V163.933H312.552C308.401 163.933 305.037 167.297 305.037 171.448C305.037 175.599 308.401 178.963 312.552 178.963H335.032V202.863H312.552C308.401 202.863 305.037 206.227 305.037 210.378C305.037 214.529 308.401 217.893 312.552 217.893H334.629C330.61 257.732 296.881 288.934 256 288.934C215.119 288.934 181.389 257.732 177.371 217.893H199.448C203.599 217.893 206.963 214.529 206.963 210.378C206.963 206.227 203.599 202.863 199.448 202.863H176.968V178.963H199.448C203.599 178.963 206.963 175.599 206.963 171.448C206.963 167.297 203.599 163.933 199.448 163.933H176.968V140.03H199.448C203.599 140.03 206.963 136.666 206.963 132.515C206.963 128.364 203.599 125 199.448 125H176.968V101.1H199.448C203.599 101.1 206.963 97.736 206.963 93.585C206.963 89.434 203.599 86.07 199.448 86.07H177.383C179.067 69.415 185.975 53.703 197.279 41.164C200.058 38.082 199.812 33.33 196.729 30.551C193.648 27.771 188.894 28.018 186.116 31.101C170.524 48.396 161.938 70.755 161.938 94.06V183.395H142.618V142.208C142.618 129.778 132.505 119.664 120.074 119.664C107.643 119.664 97.53 129.778 97.53 142.208V215.856C97.53 293.978 154.354 359.069 228.839 371.988V463.203H160.88C147.427 463.203 136.482 474.148 136.482 487.601C136.482 501.054 147.427 511.998 160.88 511.998H194.272C198.423 511.998 201.787 508.634 201.787 504.483C201.787 500.332 198.423 496.968 194.272 496.968H160.88C155.714 496.968 151.511 492.765 151.511 487.599C151.511 482.434 155.714 478.231 160.88 478.231H351.119C356.285 478.231 360.488 482.434 360.488 487.6C360.488 492.765 356.285 496.968 351.119 496.968H224.332C220.181 496.968 216.817 500.332 216.817 504.483C216.817 508.634 220.181 511.998 224.332 511.998H351.12C364.573 511.998 375.518 501.053 375.518 487.6C375.518 474.147 364.573 463.203 351.12 463.203H283.162V371.988C357.646 359.07 414.47 293.978 414.47 215.857ZM112.56 215.857V142.209C112.56 138.065 115.931 134.694 120.075 134.694C124.219 134.694 127.59 138.065 127.59 142.209V215.857C127.59 286.663 185.195 344.268 256.001 344.268C282.103 344.268 307.244 336.449 328.705 321.656C332.123 319.3 332.984 314.621 330.628 311.204C328.275 307.787 323.594 306.923 320.177 309.281C301.234 322.337 279.042 329.238 256.001 329.238C193.482 329.238 142.619 278.375 142.619 215.856V198.424H161.939V209.898C161.939 261.764 204.135 303.96 256.001 303.96C307.867 303.96 350.063 261.764 350.063 209.898V198.424H369.383V215.856C369.383 243.312 359.4 269.822 341.273 290.502C338.537 293.622 338.849 298.37 341.971 301.106C345.09 303.843 349.839 303.53 352.575 300.408C373.106 276.986 384.413 246.959 384.413 215.856V142.208C384.413 138.064 387.784 134.693 391.928 134.693C396.072 134.693 399.443 138.064 399.443 142.208V215.856C399.443 294.949 335.096 359.296 256.003 359.296C176.91 359.296 112.56 294.95 112.56 215.857ZM268.132 463.204H243.869V373.866C247.874 374.171 251.919 374.326 256 374.326C260.082 374.326 264.127 374.17 268.132 373.866V463.204Z" fill="#00BFFF"/>
</svg>
