<svg width="512" height="512" viewBox="0 0 512 512" fill="none" xmlns="http://www.w3.org/2000/svg">
<g clip-path="url(#clip0)">
<path d="M236 365.531C287.832 365.531 330 323.363 330 271.531V99C330 47.168 287.832 5 236 5C184.168 5 142 47.168 142 99V271.531C142 323.363 184.168 365.531 236 365.531ZM236 25C276.805 25 310 58.1953 310 99V181.645H162V99C162 58.1953 195.195 25 236 25ZM162 201.645H310V271.531C310 312.336 276.805 345.531 236 345.531C195.195 345.531 162 312.336 162 271.531V201.645Z" fill="white"/>
<path d="M211.668 133.312H260.332C265.855 133.312 270.332 128.836 270.332 123.312C270.332 117.789 265.855 113.312 260.332 113.312H211.668C206.145 113.312 201.668 117.789 201.668 123.312C201.668 128.836 206.145 133.312 211.668 133.312Z" fill="white"/>
<path d="M211.668 96.043H260.332C265.855 96.043 270.332 91.5664 270.332 86.043C270.332 80.5195 265.855 76.043 260.332 76.043H211.668C206.145 76.043 201.668 80.5195 201.668 86.043C201.668 91.5664 206.145 96.043 211.668 96.043Z" fill="white"/>
<path d="M364.031 243.531C358.512 243.531 354.031 248.008 354.031 253.531C354.031 318.613 301.082 371.562 236 371.562C170.918 371.562 117.969 318.613 117.969 253.531C117.969 248.008 113.492 243.531 107.969 243.531C102.445 243.531 97.9688 248.008 97.9688 253.531C97.9688 319.523 144.527 374.84 206.516 388.383V438.938H205.73C178.125 438.938 155.668 461.395 155.668 489C155.668 494.523 160.145 499 165.668 499H306.332C311.855 499 316.332 494.523 316.332 489C316.332 461.398 293.875 438.938 266.27 438.938H265.484V388.383C327.477 374.84 374.031 319.523 374.031 253.531C374.031 248.008 369.555 243.531 364.031 243.531ZM294.625 479H177.379C181.508 467.324 192.656 458.938 205.73 458.938H266.273C279.344 458.938 290.492 467.324 294.625 479ZM245.484 438.938H226.516V391.23C229.652 391.445 232.812 391.562 236 391.562C239.188 391.562 242.348 391.445 245.484 391.23V438.938Z" fill="white"/>
<path d="M116 188.027C121.523 188.027 126 183.551 126 178.027V130.395C126 124.871 121.523 120.395 116 120.395C110.477 120.395 106 124.871 106 130.395V178.027C106 183.551 110.477 188.027 116 188.027Z" fill="white"/>
<path d="M84 85.3164C78.4766 85.3164 74 89.793 74 95.3164V230.484C74 236.008 78.4766 240.484 84 240.484C89.5234 240.484 94 236.008 94 230.484V95.3164C94 89.793 89.5234 85.3164 84 85.3164Z" fill="white"/>
<path d="M354 188.027C359.523 188.027 364 183.551 364 178.027V130.395C364 124.871 359.523 120.395 354 120.395C348.477 120.395 344 124.871 344 130.395V178.027C344 183.551 348.477 188.027 354 188.027Z" fill="white"/>
<path d="M393 220.488C390.371 220.488 387.789 221.551 385.93 223.41C384.07 225.281 383 227.852 383 230.488C383 233.121 384.07 235.699 385.93 237.559C387.789 239.422 390.371 240.488 393 240.488C395.629 240.488 398.211 239.422 400.07 237.559C401.93 235.699 403 233.121 403 230.488C403 227.852 401.93 225.281 400.07 223.41C398.211 221.551 395.629 220.488 393 220.488Z" fill="white"/>
<path d="M393 85.3164C387.477 85.3164 383 89.793 383 95.3164V188.027C383 193.551 387.477 198.027 393 198.027C398.523 198.027 403 193.551 403 188.027V95.3164C403 89.793 398.523 85.3164 393 85.3164Z" fill="white"/>
<path d="M236 320.5C264.656 320.5 287.973 297.188 287.973 268.531C287.973 263.008 283.492 258.531 277.973 258.531C272.449 258.531 267.973 263.008 267.973 268.531C267.973 286.156 253.629 300.5 236 300.5C230.477 300.5 226 304.977 226 310.5C226 316.023 230.477 320.5 236 320.5Z" fill="white"/>
<path d="M277.969 244C280.602 244 283.18 242.93 285.039 241.07C286.898 239.211 287.969 236.629 287.969 234C287.969 231.371 286.902 228.789 285.039 226.93C283.18 225.07 280.602 224 277.969 224C275.34 224 272.762 225.07 270.902 226.93C269.043 228.789 267.969 231.371 267.969 234C267.969 236.629 269.039 239.211 270.902 241.07C272.762 242.93 275.34 244 277.969 244Z" fill="white"/>
</g>
<defs>
<clipPath id="clip0">
<rect width="512" height="512" fill="white"/>
</clipPath>
</defs>
</svg>
