<svg height="512" viewBox="0 0 60 60" width="512" xmlns="http://www.w3.org/2000/svg"><g id="Page-1" fill="none" fill-rule="evenodd"><g id="016---PC-and-Monitor" fill-rule="nonzero"><path id="Shape" d="m45 19v25h-44v-25c0-2.209139 1.790861-4 4-4h36c2.209139 0 4 1.790861 4 4z" fill="#02a9f4"/><path id="Shape" d="m45 19v25h-44v-4.68c27.48 2.36 34.69-16.75 36.46-24.32h3.54c2.209139 0 4 1.790861 4 4z" fill="#0377bc"/><path id="Shape" d="m45 44v1c0 2.209139-1.790861 4-4 4h-36c-2.209139 0-4-1.790861-4-4v-1z" fill="#607d8b"/><path id="Shape" d="m42 44v1c0 2.209139-1.790861 4-4 4h3c2.209139 0 4-1.790861 4-4v-1z" fill="#37474f"/><path id="Rectangle-path" d="m17 49h12v6h-12z" fill="#607d8b"/><path id="Rectangle-path" d="m26 49h3v6h-3z" fill="#37474f"/><path id="Shape" d="m35 57c0 1.1045695-.8954305 2-2 2h-20c-1.1045695 0-2-.8954305-2-2s.8954305-2 2-2h20c1.1045695 0 2 .8954305 2 2z" fill="#607d8b"/><path id="Shape" d="m33 55h-3c1.1045695 0 2 .8954305 2 2s-.8954305 2-2 2h3c1.1045695 0 2-.8954305 2-2s-.8954305-2-2-2z" fill="#37474f"/><path id="Shape" d="m5 24c-.26580298.0015368-.52128117-.1028135-.71-.29-.18931265-.1877666-.29579832-.4433625-.29579832-.71s.10648567-.5222334.29579832-.71l4-4c.25365857-.2536586.62337399-.3527235.96987804-.259878.34650405.0928454.61715452.3634959.71.71.09284546.346504-.00621947.7162194-.25987804.969878l-4 4c-.18871883.1871865-.44419702.2915368-.71.29z" fill="#f5f5f5"/><path id="Shape" d="m5 30c-.26580298.0015368-.52128117-.1028135-.71-.29-.18931265-.1877666-.29579832-.4433625-.29579832-.71s.10648567-.5222334.29579832-.71l10-10c.2536586-.2536586.623374-.3527235.969878-.259878.3465041.0928454.6171546.3634959.71.71.0928455.346504-.0062194.7162194-.259878.969878l-10 10c-.18871883.1871865-.44419702.2915368-.71.29z" fill="#f5f5f5"/><path id="Shape" d="m59 3v54c0 1.1045695-.8954305 2-2 2h-24c1.1045695 0 2-.8954305 2-2s-.8954305-2-2-2h-4v-6h12c2.209139 0 4-1.790861 4-4v-26c0-2.209139-1.790861-4-4-4h-12v-12c0-1.1045695.8954305-2 2-2h26c1.1045695 0 2 .8954305 2 2z" fill="#3f51b5"/><path id="Shape" d="m57 1h-3c1.1045695 0 2 .8954305 2 2v54c0 1.1045695-.8954305 2-2 2h3c1.1045695 0 2-.8954305 2-2v-54c0-1.1045695-.8954305-2-2-2z" fill="#283593"/><rect id="Rectangle-path" fill="#283593" height="4" rx="1" width="22" x="33" y="6"/><circle id="Oval" cx="52" cy="17" fill="#ffeb3a" r="2"/><circle id="Oval" cx="52" cy="25" fill="#ffeb3a" r="2"/><g fill="#000"><path id="Shape" d="m57 0h-26c-1.6568542 0-3 1.34314575-3 3v11h-23c-2.76142375 0-5 2.2385763-5 5v26c0 2.7614237 2.23857625 5 5 5h11v4h-3c-1.6568542 0-3 1.3431458-3 3s1.3431458 3 3 3h44c1.6568542 0 3-1.3431458 3-3v-54c0-1.65685425-1.3431458-3-3-3zm-52 16h36c1.6568542 0 3 1.3431458 3 3v24h-42v-24c0-1.6568542 1.34314575-3 3-3zm-3 29h42c0 1.6568542-1.3431458 3-3 3h-36c-1.65685425 0-3-1.3431458-3-3zm16 5h10v4h-10zm13 8h-18c-.5522847 0-1-.4477153-1-1s.4477153-1 1-1h20c.5522847 0 1 .4477153 1 1s-.4477153 1-1 1zm27-1c0 .5522847-.4477153 1-1 1h-21.18c.3241437-.9168047.1838094-1.9338513-.3765005-2.7286171-.5603099-.7947659-1.4710837-1.2686527-2.4434995-1.2713829h-3v-4h11c2.7614237 0 5-2.2385763 5-5v-26c0-2.7614237-2.2385763-5-5-5h-11v-11c0-.55228475.4477153-1 1-1h26c.5522847 0 1 .44771525 1 1z"/><path id="Shape" d="m54 5h-20c-1.1045695 0-2 .8954305-2 2v2c0 1.1045695.8954305 2 2 2h20c1.1045695 0 2-.8954305 2-2v-2c0-1.1045695-.8954305-2-2-2zm-20 4v-2h20v2z"/><path id="Shape" d="m52 20c1.6568542 0 3-1.3431458 3-3s-1.3431458-3-3-3-3 1.3431458-3 3 1.3431458 3 3 3zm0-4c.5522847 0 1 .4477153 1 1s-.4477153 1-1 1-1-.4477153-1-1 .4477153-1 1-1z"/><path id="Shape" d="m55 25c0-1.6568542-1.3431458-3-3-3s-3 1.3431458-3 3 1.3431458 3 3 3 3-1.3431458 3-3zm-3 1c-.5522847 0-1-.4477153-1-1s.4477153-1 1-1 1 .4477153 1 1-.4477153 1-1 1z"/><path id="Shape" d="m39 52c-.5522847 0-1 .4477153-1 1v2c0 .5522847.4477153 1 1 1s1-.4477153 1-1v-2c0-.5522847-.4477153-1-1-1z"/><path id="Shape" d="m43 52c-.5522847 0-1 .4477153-1 1v2c0 .5522847.4477153 1 1 1s1-.4477153 1-1v-2c0-.5522847-.4477153-1-1-1z"/><path id="Shape" d="m47 52c-.5522847 0-1 .4477153-1 1v2c0 .5522847.4477153 1 1 1s1-.4477153 1-1v-2c0-.5522847-.4477153-1-1-1z"/><path id="Shape" d="m51 52c-.5522847 0-1 .4477153-1 1v2c0 .5522847.4477153 1 1 1s1-.4477153 1-1v-2c0-.5522847-.4477153-1-1-1z"/><path id="Shape" d="m55 52c-.5522847 0-1 .4477153-1 1v2c0 .5522847.4477153 1 1 1s1-.4477153 1-1v-2c0-.5522847-.4477153-1-1-1z"/></g></g></g></svg>