<svg width="20" height="16" viewBox="0 0 20 16" fill="none" xmlns="http://www.w3.org/2000/svg">
<path d="M17.633 3.99701C17.646 4.17201 17.646 4.34601 17.646 4.52001C17.646 9.84501 13.593 15.981 6.186 15.981C3.904 15.981 1.784 15.32 0 14.172C0.324 14.209 0.636 14.222 0.973 14.222C2.856 14.222 4.589 13.586 5.974 12.501C4.203 12.464 2.719 11.304 2.207 9.70801C2.456 9.74501 2.706 9.77001 2.968 9.77001C3.329 9.77001 3.692 9.72001 4.029 9.63301C2.182 9.25901 0.799 7.63801 0.799 5.68001V5.63001C1.336 5.92901 1.959 6.11601 2.619 6.14101C1.534 5.41901 0.823 4.18401 0.823 2.78701C0.823 2.03901 1.022 1.35301 1.371 0.755013C3.354 3.19801 6.335 4.79501 9.677 4.97001C9.615 4.67001 9.577 4.35901 9.577 4.04701C9.577 1.82701 11.373 0.0190125 13.605 0.0190125C14.765 0.0190125 15.812 0.505012 16.548 1.29101C17.458 1.11601 18.33 0.779012 19.104 0.318012C18.805 1.25301 18.168 2.03901 17.333 2.53801C18.144 2.45001 18.93 2.22601 19.652 1.91401C19.104 2.71201 18.419 3.42301 17.633 3.99701Z" fill="white"/>
</svg>
