<svg width="512" height="512" viewBox="0 0 512 512" fill="none" xmlns="http://www.w3.org/2000/svg">
<g clip-path="url(#clip0)">
<path d="M60 512C93.0898 512 121 485.09 121 452C121 418.91 93.0898 391 60 391C26.9102 391 0 418.91 0 452C0 485.09 26.9102 512 60 512Z" fill="white"/>
<path d="M15 300H45C136.125 300 212 375.871 212 467V497C212 505.285 218.715 512 227 512H257C265.285 512 272 505.285 272 497V467C272 342.734 169.266 240 45 240H15C6.71484 240 0 246.715 0 255V285C0 293.285 6.71484 300 15 300Z" fill="white"/>
<path d="M15 180H45C202.402 180 332 309.598 332 467V497C332 505.285 338.715 512 347 512H377C385.285 512 392 505.285 392 497V467C392 276.461 235.539 120 45 120H15C6.71484 120 0 126.715 0 135V165C0 173.285 6.71484 180 15 180Z" fill="white"/>
<path d="M46 0H16C7.71484 0 1 6.71484 1 15V45C1 53.2852 7.71484 60 16 60H46C269.676 60 453 243.324 453 467V497C453 505.285 459.715 512 468 512H498C506.285 512 513 505.285 513 497V467C513 210.188 302.812 0 46 0Z" fill="white"/>
</g>
<defs>
<clipPath id="clip0">
<rect width="512" height="512" fill="white"/>
</clipPath>
</defs>
</svg>
